<svg width="134" height="22" viewBox="0 0 134 22" fill="none" xmlns="http://www.w3.org/2000/svg">
<g id="Social">
<g id="001-facebook">
<path id="Path" d="M8.11163 4.29509H9.92331V1.13974C9.61075 1.09674 8.53581 1 7.28393 1C4.67183 1 2.88248 2.643 2.88248 5.66274V8.44186H0V11.9693H2.88248V20.845H6.41654V11.9701H9.18243L9.6215 8.44269H6.41571V6.01251C6.41654 4.99297 6.69106 4.29509 8.11163 4.29509Z" fill="black"/>
</g>
<g id="003-twitter">
<path id="Path_2" d="M71.9614 4.11613C71.1433 4.475 70.2716 4.71288 69.3627 4.82838C70.2977 4.27013 71.0113 3.39287 71.3468 2.3355C70.475 2.85525 69.5126 3.22238 68.4868 3.42725C67.6591 2.54588 66.4793 2 65.1923 2C62.6953 2 60.6851 4.02675 60.6851 6.51137C60.6851 6.86888 60.7153 7.21263 60.7896 7.53988C57.0399 7.357 53.7221 5.55988 51.4932 2.82225C51.1041 3.49738 50.8758 4.27012 50.8758 5.102C50.8758 6.664 51.6802 8.04862 52.8792 8.85025C52.1546 8.8365 51.4437 8.62613 50.8414 8.29475C50.8414 8.3085 50.8414 8.32638 50.8414 8.34425C50.8414 10.536 52.4048 12.3565 54.4549 12.7759C54.0878 12.8763 53.6877 12.9244 53.2724 12.9244C52.9837 12.9244 52.6922 12.9079 52.4186 12.8474C53.0029 14.6335 54.6612 15.9466 56.6329 15.9893C55.0984 17.1896 53.1501 17.9129 51.0408 17.9129C50.6709 17.9129 50.3162 17.8964 49.9614 17.851C51.9593 19.1394 54.3271 19.875 56.8804 19.875C65.1799 19.875 69.7174 13 69.7174 7.04075C69.7174 6.84137 69.7106 6.64887 69.7009 6.45775C70.5961 5.8225 71.3482 5.02913 71.9614 4.11613Z" fill="black"/>
</g>
<g id="004-instagram">
<path id="Shape" fill-rule="evenodd" clip-rule="evenodd" d="M118.836 0H127.086C130.883 0 133.961 3.07862 133.961 6.875V15.125C133.961 18.9214 130.883 22 127.086 22H118.836C115.04 22 111.961 18.9214 111.961 15.125V6.875C111.961 3.07862 115.04 0 118.836 0ZM127.086 19.9375C129.74 19.9375 131.899 17.7787 131.899 15.125V6.875C131.899 4.22125 129.74 2.0625 127.086 2.0625H118.836C116.183 2.0625 114.024 4.22125 114.024 6.875V15.125C114.024 17.7787 116.183 19.9375 118.836 19.9375H127.086Z" fill="black"/>
<path id="Shape_2" fill-rule="evenodd" clip-rule="evenodd" d="M117.461 11C117.461 7.96263 119.924 5.5 122.961 5.5C125.999 5.5 128.461 7.96263 128.461 11C128.461 14.0374 125.999 16.5 122.961 16.5C119.924 16.5 117.461 14.0374 117.461 11ZM119.524 11C119.524 12.8948 121.067 14.4375 122.961 14.4375C124.856 14.4375 126.399 12.8948 126.399 11C126.399 9.10388 124.856 7.5625 122.961 7.5625C121.067 7.5625 119.524 9.10388 119.524 11Z" fill="black"/>
<circle id="Oval" cx="128.874" cy="5.08761" r="0.732875" fill="black"/>
</g>
</g>
</svg>
