<svg width="18" height="18" viewBox="0 0 18 18" fill="none" xmlns="http://www.w3.org/2000/svg">
<g id="Comment">
<path id="Shape" fill-rule="evenodd" clip-rule="evenodd" d="M17.5467 8.70686C17.5467 4.00876 13.7381 0.200195 9.03999 0.200195C4.34189 0.200195 0.533325 4.00876 0.533325 8.70686C0.533325 13.405 4.34189 17.2135 9.03999 17.2135C10.0654 17.2135 11.474 16.8395 13.2659 16.0913L16.1634 17.2216L16.2493 17.2495C16.6238 17.3477 17.0207 17.1516 17.1649 16.7822C17.2225 16.6344 17.2333 16.4725 17.1958 16.3184L16.3879 12.9958L16.5202 12.6792C17.2045 11.0124 17.5467 9.68828 17.5467 8.70686ZM15.4365 12.2643L15.1699 12.8957L15.8933 15.8709L13.2511 14.8402L12.5295 15.1395C11.0078 15.7536 9.8323 16.0533 9.04 16.0533C4.98255 16.0533 1.69333 12.7641 1.69333 8.70667C1.69333 4.64921 4.98255 1.36 9.04 1.36C13.0975 1.36 16.3867 4.64921 16.3867 8.70667C16.3867 9.5152 16.075 10.7137 15.4365 12.2643Z" fill="#262626"/>
</g>
</svg>
