<svg width="20" height="17" viewBox="0 0 20 17" fill="none" xmlns="http://www.w3.org/2000/svg">
<g id="Like">
<path id="Shape" fill-rule="evenodd" clip-rule="evenodd" d="M10.0081 2.25665L9.5015 1.66459C7.46296 -0.373949 4.21201 -0.235034 2.17347 1.8035C0.134936 3.84204 0.527258 7.7832 2.56579 9.82174C3.39315 10.6491 4.63217 11.7946 6.28285 13.2584L7.67155 14.4801L9.23129 15.834C9.66075 16.2046 10.2953 16.2103 10.7313 15.8474L11.9948 14.788C14.2076 12.918 15.8496 11.445 16.9209 10.3692L17.1989 10.0856L17.4486 9.82174C19.3471 7.77441 19.835 3.79463 17.8439 1.8035L17.6996 1.66459C15.6523 -0.233931 12.5651 -0.326542 10.5739 1.66459L10.0081 2.25665ZM2.99374 2.6236C4.6057 1.01164 7.09948 0.936068 8.65131 2.45503L9.96057 3.98519L11.4126 2.4659C12.9019 0.97698 15.2755 0.998504 16.9109 2.51501L17.0392 2.63889C18.4463 4.0462 18.2069 7.29787 16.598 9.03284L16.3564 9.28814L16.0882 9.56149C15.2002 10.4528 13.884 11.6468 12.1487 13.1339L11.2461 13.9019L9.98924 14.9557L8.43197 13.6039L7.31742 12.6249C5.74693 11.2368 4.5354 10.1266 3.68713 9.29861L3.38606 9.00135C1.70674 7.32202 1.4967 4.12064 2.99374 2.6236Z" fill="#262626"/>
</g>
</svg>
