<svg width="12" height="4" viewBox="0 0 12 4" fill="none" xmlns="http://www.w3.org/2000/svg">
<g id="More Icon">
<path id="Shape" fill-rule="evenodd" clip-rule="evenodd" d="M1.73336 0.719941C2.37401 0.719941 2.89336 1.23929 2.89336 1.87994C2.89336 2.52059 2.37401 3.03994 1.73336 3.03994C1.09271 3.03994 0.573364 2.52059 0.573364 1.87994C0.573364 1.23929 1.09271 0.719941 1.73336 0.719941ZM5.9867 0.719727C6.62735 0.719727 7.1467 1.23908 7.1467 1.87973C7.1467 2.52038 6.62735 3.03973 5.9867 3.03973C5.34605 3.03973 4.8267 2.52038 4.8267 1.87973C4.8267 1.23908 5.34605 0.719727 5.9867 0.719727ZM10.24 0.719727C10.8807 0.719727 11.4 1.23908 11.4 1.87973C11.4 2.52038 10.8807 3.03973 10.24 3.03973C9.59938 3.03973 9.08003 2.52038 9.08003 1.87973C9.08003 1.23908 9.59938 0.719727 10.24 0.719727Z" fill="#262626"/>
</g>
</svg>
