<svg width="22" height="5" viewBox="0 0 22 5" fill="none" xmlns="http://www.w3.org/2000/svg">
<g id="Pagination">
<path id="Oval" fill-rule="evenodd" clip-rule="evenodd" d="M3.26666 4.64024C4.54796 4.64024 5.58666 3.60154 5.58666 2.32024C5.58666 1.03894 4.54796 0.000244141 3.26666 0.000244141C1.98535 0.000244141 0.946655 1.03894 0.946655 2.32024C0.946655 3.60154 1.98535 4.64024 3.26666 4.64024Z" fill="#3897F0"/>
<path id="Oval_2" fill-rule="evenodd" clip-rule="evenodd" d="M11.0001 4.64024C12.2814 4.64024 13.3201 3.60154 13.3201 2.32024C13.3201 1.03894 12.2814 0.000244141 11.0001 0.000244141C9.71875 0.000244141 8.68005 1.03894 8.68005 2.32024C8.68005 3.60154 9.71875 4.64024 11.0001 4.64024Z" fill="black" fill-opacity="0.15"/>
<path id="Oval_3" fill-rule="evenodd" clip-rule="evenodd" d="M18.7333 4.64024C20.0146 4.64024 21.0533 3.60154 21.0533 2.32024C21.0533 1.03894 20.0146 0.000244141 18.7333 0.000244141C17.452 0.000244141 16.4133 1.03894 16.4133 2.32024C16.4133 3.60154 17.452 4.64024 18.7333 4.64024Z" fill="black" fill-opacity="0.15"/>
</g>
</svg>
