<svg width="16" height="19" viewBox="0 0 16 19" fill="none" xmlns="http://www.w3.org/2000/svg">
<g id="Save">
<path id="Shape" fill-rule="evenodd" clip-rule="evenodd" d="M0.0522461 0.951852V17.6964C0.0522461 17.8996 0.132235 18.0946 0.274915 18.2393C0.574787 18.5435 1.06442 18.5469 1.36855 18.247L7.97949 11.7285L14.5904 18.247C14.7351 18.3897 14.9302 18.4697 15.1334 18.4697C15.5605 18.4697 15.9067 18.1235 15.9067 17.6964V0.951852C15.9067 0.738302 15.7336 0.565186 15.5201 0.565186H0.438913C0.225363 0.565186 0.0522461 0.738302 0.0522461 0.951852ZM1.21223 16.772V1.72511H14.7467V16.772L8.52244 10.6348C8.22134 10.3379 7.7376 10.3379 7.4365 10.6348L1.21223 16.772Z" fill="#262626"/>
</g>
</svg>
